<?xml version="1.0" encoding="utf-8"?>
<!-- Generator: Adobe Illustrator 22.0.0, SVG Export Plug-In . SVG Version: 6.00 Build 0)  -->
<svg version="1.1" id="Layer_1" xmlns="http://www.w3.org/2000/svg" xmlns:xlink="http://www.w3.org/1999/xlink" x="0px" y="0px"
	 viewBox="0 0 515.9 728.5" style="enable-background:new 0 0 515.9 728.5;" xml:space="preserve">
<style type="text/css">
	.st0{fill:#F2F2F2;}
	.st1{fill:#302F42;}
	.st2{fill:#F6B7BA;}
	.st3{opacity:0.1;fill:#020203;enable-background:new    ;}
	.st4{fill:#585B8A;}
	.st5{opacity:0.2;fill:#020203;enable-background:new    ;}
	.st6{fill:#373739;}
	.st7{opacity:0.2;fill:none;stroke:#020203;stroke-width:2;stroke-miterlimit:10;enable-background:new    ;}
	.st8{fill:none;stroke:#403E56;stroke-width:0.75;stroke-miterlimit:10;}
	.st9{fill:#403E56;}
	.st10{fill:#A0626B;}
	.st11{fill:#D0CDE1;}
</style>
<circle class="st0" cx="240" cy="311.4" r="134.7"/>
<ellipse class="st0" cx="384.1" cy="442.9" rx="82.7" ry="13.2"/>
<path class="st1" d="M365.7,315.7c0,0,0.7,2.3-3.3,4.5c-4,2.1-5.2,10.1-0.5,12.4c4.7,2.3,6.1,5.4,3.8,7.5c-2.3,2.1-6.6,7.7-0.9,9.2
	c5.6,1.4,6.3,4.2,4.7,5.4s3.8-2.1,3.8-2.1s0.9,5.6,5.9,4.2s18.8-28.2,11.7-31.9C383.8,321.1,365.7,315.7,365.7,315.7z"/>
<path class="st2" d="M374.3,338.3c0,0,2.4,8.5-1.8,9.1c-2.6,0.4-5.2,1.5-7.3,3l7.9,10.3h14.6l9.1-9.1c0,0-12.2-9.1-9.7-14.6
	C389.5,331.6,374.3,338.3,374.3,338.3z"/>
<path class="st3" d="M374.3,338.3c0,0,2.4,8.5-1.8,9.1c-2.6,0.4-5.2,1.5-7.3,3l7.9,10.3h14.6l9.1-9.1c0,0-12.2-9.1-9.7-14.6
	C389.5,331.6,374.3,338.3,374.3,338.3z"/>
<polygon class="st2" points="377.9,444.2 391.9,449.1 401.6,449.7 401,441.2 380.9,435.3 "/>
<path class="st4" d="M395.9,442.4c0,0,0,8.5,1.2,8.5s17.7-1.8,22.5,0s12.2-4.9,8.5-8.5s-9.6-9.1-13.3-7.9s-18.9,4.3-18.9,4.3V442.4z
	"/>
<path class="st4" d="M351.1,434.5c0,0-7.3,14.6-2.4,15.8s10.3-0.6,11-1.2s9.1-3,10.3-1.8c1.2,1.2,1.2-4.9,1.2-4.9L351.1,434.5z"/>
<path class="st1" d="M357.2,414.4c0,0-11.6,15.8-3,20.1c8.5,4.3,49.3,4.3,52.4,0c3-4.3,4.3-17.7,0-18.9
	C402.3,414.4,357.2,414.4,357.2,414.4z"/>
<path class="st5" d="M357.2,414.4c0,0-11.6,15.8-3,20.1c8.5,4.3,49.3,4.3,52.4,0c3-4.3,4.3-17.7,0-18.9
	C402.3,414.4,357.2,414.4,357.2,414.4z"/>
<circle class="st2" cx="379.1" cy="328.6" r="14"/>
<path class="st6" d="M357.2,350.5l12.2-2.4c0,0,3,9.7,12.8,7.9c9.7-1.8,12.2-7.9,12.2-7.9s7.3,3,7.9,3s8.5,3,8.5,4.9
	s-9.1,20.1-9.1,20.1l1.2,32.9l-45-1.2l3-32.3L357.2,350.5z"/>
<path class="st2" d="M350.5,366.3c0,0-3.7,32.3-1.2,34.7c2.4,2.4,12.2,9.1,12.2,9.1v-7.3l-4.9-9.1l4.9-21.3L350.5,366.3z"/>
<path class="st2" d="M413.5,365.4c0,0-2.1,33.2-2.1,34.4s-5.5,5.5-7.3,5.5s-3-3-3-3l4.3-4.9l-3-25L413.5,365.4z"/>
<path class="st1" d="M407.7,412c0,0,27.4-15.2,28,0c0.6,15.2-14,21.3-14,21.3s-37.7,11.3-39.3,7.2c-1.5-4.1-4.6-10.8-2.1-11.4
	c2.4-0.6,5.5-1.8,6.7-0.6c1.2,1.2,16.4-9.1,16.4-9.1L407.7,412z"/>
<path class="st7" d="M420.5,410.1c0,0-5.5,2.4-7.3,4.3s-9.7,4.9-9.7,4.9"/>
<path class="st6" d="M360.9,351.7l-3.7-1.2c0,0-13.4,14-9.1,17.7c4.3,3.7,6.7,4.9,7.9,6.1c1.2,1.2,7.3,1.8,7.3,1.8L360.9,351.7z"/>
<path class="st6" d="M405.3,354.8l5.5,1.2c0,0,4.3,9.1,5.5,10.3c1.2,1.2-1.8,0.6-3.7,3c-1.8,2.4-3.7,6.7-7.3,6.7s-8.5-6.1-8.5-6.1
	L405.3,354.8z"/>
<path class="st1" d="M358.4,417.5c0,0-23.1-16.4-31-4.3c-7.9,12.2,34.1,28.6,40.2,31c6.1,2.4,11.6,4.9,11.6,4.9s5.5-13.4,5.5-15.8
	c0-2.4-4.3-2.4-5.5-2.4s-6.7-1.2-7.9-3C370,426,358.4,417.5,358.4,417.5z"/>
<path class="st7" d="M345.6,413.2c0,0,6.1,4.9,11.6,6.1c5.5,1.2,7.3,4.3,7.3,4.3"/>
<path class="st4" d="M354.2,390.3l0.5,25.8c0,1.8,1.5,3.2,3.3,3.2l48-0.5c1.7,0,3.1-1.3,3.2-3l1.5-25.2c0.1-1.8-1.3-3.3-3-3.4
	c-0.1,0-0.1,0-0.2,0h-49.9C355.7,387,354.2,388.5,354.2,390.3C354.2,390.3,354.2,390.3,354.2,390.3z"/>
<path class="st1" d="M379.9,311c0,0,0.8,2.6-3.6,4.9c-4.4,2.3-5.7,11.2-0.5,13.8c5.2,2.6,6.8,6,4.2,8.3c-2.6,2.3-7.3,8.6-1,10.1
	c6.2,1.6,7,4.7,5.2,6c-1.8,1.3,4.2-2.3,4.2-2.3s1,6.2,6.5,4.7c5.5-1.6,10.9-29.9,4.8-37.2C393.9,312.5,379.9,311,379.9,311z"/>
<path class="st1" d="M378.2,308.3c0-3.8,11.4-1.1,16.3,4.2c3.4,3.7,8.5,9.2,4.2,13.1c-4.3,3.9,7.4,9,10.5,10.6
	c3.1,1.6,9.3,6.3,3.7,9.5c-5.6,3.2-5.5,6.4-3.4,7.2c2.1,0.8-4.6-1.1-4.6-1.1s0.7,6.3-5,6.3c-5.7,0-22-31.2-18.1-39.9
	C385.5,310.1,378.2,308.3,378.2,308.3z"/>
<path class="st1" d="M380.7,307.5c-15.2-0.9-16.8,10.6-16.8,10.6c0.1,6.6,10.6,3.4,13.6,4.4c3.5-2.5,10.3-7.4,15.2-10.8
	C389.2,309.2,385,307.7,380.7,307.5z"/>
<path class="st8" d="M376.3,380.7c0,0-13.7-64.1-99.2-110.6"/>
<polygon class="st9" points="280.6,268.7 280.8,269.4 277.3,270.3 278.4,273.7 277.7,273.9 276.4,269.8 "/>
<path class="st1" d="M146,444.1l2.3-1.7c0,0,1.5,8.5-0.2,9.8s-8.1,3.4-8.1,6s-14.5,6-14.9,2.1c-0.4-3.8,1.3-6,1.3-6s6.8-6.8,7.7-8.1
	c0.9-1.3,3-3.8,3-3.8L146,444.1z"/>
<path class="st1" d="M112,338.1c0,0,0.1,0.4,0.2,1.1c0.1,0.6,0.2,1.5,0.4,2.5c1.8,10.9,7,43,6.6,44.1c-0.4,1.3-3.4,6,0,7.2
	c0.3,0.1,0.7,0.5,1.1,1.2c0.7,1.4,1.3,2.8,1.8,4.2c2,5.9,4.2,15.3,5.5,21.8c0.5,2.9,0.9,5.2,1,6.4c0,0.3,0,0.6,0,0.8
	c-0.4,1.7,2.6,7.7,3.8,9.4c1.3,1.7,3.4,3.4,3,5.1c-0.4,1.7,10.6,6.4,11.9,3.4c1.3-3,1.3-4.7,1.7-5.5c0.4-0.9,0.9-6.8-1.3-7.7
	c-2.1-0.9-0.9-15.7-3-18.7c-0.7-1-1.8-4.4-2.9-8.4c-0.4-1.6-0.9-3.3-1.3-5c-1.8-6.9-3.4-13.9-3.4-13.9l0.4-49.8l-23.4-3l-0.6,1.3
	l-1.2,2.6L112,338.1z"/>
<path class="st1" d="M110.7,419.8c0,0-3.4-3.4-5.1,0c-1.7,3.4-3.4,16.6-6.4,19.6c-3,3-6.8,17.9-2.6,18.7c4.3,0.9,8.9-1.3,9.4-3.8
	c0.4-2.6,9.4-15.7,9.4-17c0-1.3-6-6-6-6L110.7,419.8z"/>
<path class="st1" d="M163,314.7c0,0-5.5,49.8-6.8,54.5c-1.3,4.7-8.1,22.6-10.2,25.5c-2.1,3-15.7,27.2-17.5,28.5
	c-1.7,1.3-5.1,4.7-5.1,4.7s-6.4,6.4-7.2,7.7c-0.9,1.3-8.1-2.6-8.5-5.1c-0.4-2.6,0.4-6.8,0.9-8.5s-0.9-4.3,0.4-5.5
	c1.3-1.3,7.7-7.7,7.7-10.6s11.1-20.4,15.3-24.3c4.3-3.8,3.4-10.2,3.4-10.2v-26l-23.4-7.2c0,0,1.3-20.4,4.3-20.4
	C119.2,317.6,158.4,310.8,163,314.7z"/>
<circle class="st10" cx="128.6" cy="229.5" r="14"/>
<path class="st10" d="M133.2,240.6c0,0,1.7,6.4,3.8,8.1s-5.5,8.9-5.5,8.9l-14.5,0.9l-2.6-8.1c0,0,4.7-9.4,3.4-15.3
	S133.2,240.6,133.2,240.6z"/>
<path class="st6" d="M139.2,247.8c0,0-3.8,0.4-4.7,1.7c-0.9,1.3-6.8,5.1-11.5,4.3c-4.7-0.9-7.7-2.1-8.5-1.7
	c-0.9,0.4-2.6,9.4-2.6,9.4l4.7,13.6l-0.9,37.5l-1.3,10.2c0,0-2.6-3.4,7.7-1.3s23.4-1.7,27.7-2.1c4.3-0.4,11.5-1.7,11.9-4.3
	c0.4-2.6-1.3-11.9-1.3-11.9l-6.8-28.5l-4.3-15.3L139.2,247.8z"/>
<path class="st11" d="M135.2,245.9c0,0,3.6-1.9,4.9-0.2s17.5,4.3,17.5,5.5c0,1.3,3.4,35.8,2.6,38.7s1.7,6.4,1.7,6.4l3,12.8
	c0,0,8.1,24.3,4.7,25.1c-3.4,0.9-6.4,0-7.7,0c-1.3,0-0.9-16.2-4.3-20.4c-3.4-4.3-8.1-14.9-8.9-17c-0.9-2.1-11.5-31.5-11.1-34.9
	S135.2,245.9,135.2,245.9z"/>
<path class="st11" d="M117.5,247.8c0,0-3.4,0-3.8,0.9c-0.4,0.9-4.7,6.4-6.4,7.7c-1.7,1.3-7.7,6.8-7.7,8.1s12.3,10.6,12.3,10.6
	s5.1,25.1,2.6,33.6c-2.6,8.5-6.4,28.9-4.7,30.2c1.7,1.3,5.5,1.7,5.5,0c0-1.7,2.6-20,4.7-23.8c2.1-3.8,8.5-28.1,6-34.9
	S117.5,247.8,117.5,247.8z"/>
<path class="st10" d="M173.7,290c0,0,0.4,13.2-4.3,20c-4.7,6.8-7.7,14.5-7.7,14.5s-7.7-2.1-8.9-4.7c-1.3-2.6-9.4-0.4-9.4-1.3
	s9.8-5.1,10.6-6c0.9-0.9,3.8-0.9,5.5-2.6c1.7-1.7,2.1-5.5,2.1-5.5l1.7-11.1L173.7,290z"/>
<path class="st1" d="M138.2,220.9c1.1-0.1,2.2-0.2,3.2-0.7c2.1-1.2,2.7-4.4,1.1-6.2c-0.4-0.5-1-0.9-1.5-1.2l-3.2-2.2
	c-1.4-1-2.9-2-4.6-2.4c-1.5-0.4-3.1-0.4-4.7-0.3c-3,0.2-6.1,0.6-8.9,1.6c-2.9,1-5.5,2.8-7.2,5.3c-2.7,4-2.8,9.3-1.3,13.9
	s4.4,8.6,7.2,12.5l1.5-7.1c0.1-0.6,0.3-1.3,0.8-1.7c1.3-0.9,2.9,1,4.5,1c1,0,1.9-0.9,2.3-1.8s0.4-2,0.5-3.1c0.2-2.2,1-5.2,3-6.4
	C132.9,220.7,136.1,221.1,138.2,220.9z"/>
<path class="st3" d="M137.4,338.4c0,0-1.4,41.6-2.3,42.9c-0.9,1.3,0-43,0-43L137.4,338.4z"/>
<path class="st11" d="M154.1,251.2h3.4c0,0,14.5,19.6,12.8,20.9c-1.7,1.3,0,4.7,0,4.7l3.4,6.4c0,0,4.3,3.8,3,4.7
	c-1.3,0.9-3,4.3-3,4.3s-8.5-1.3-11.1,3.8l-5.5-7L154.1,251.2z"/>
<rect x="147.6" y="259.1" transform="matrix(0.9243 -0.3817 0.3817 0.9243 -91.7171 79.2643)" class="st1" width="12.6" height="23.6"/>
<ellipse transform="matrix(0.9243 -0.3817 0.3817 0.9243 -90.7646 78.7145)" class="st6" cx="153" cy="268.2" rx="2.5" ry="2.3"/>
<path class="st10" d="M145.6,285.3c0,0-30.6,25.5-35.8,17.5c-5.1-8.1,5.5-14.9,5.5-14.9s9.4,0.4,20-6.4l10.6-4.7
	c0,0,9.7-13.9,13-8.6C162.3,273.5,153.4,282.7,145.6,285.3z"/>
<path class="st11" d="M104.3,262.7l-4.7,1.7v12.8l-1.7,2.6c0,0,0.4,5.1,1.7,6.4c1.3,1.3,3.8,0.9,3,3.8c-0.5,1.9-0.7,4-0.4,6
	c0,0,7.7,9.8,8.1,8.5c0.4-1.3,6.4-17,7.2-17s-8.5-24.7-8.5-24.7H104.3z"/>
<path class="st1" d="M160.3,327.2c0,0,4.4-4.3,2.2-4.5c-2.2-0.2-9.9-4.5-11.1-2.3C150.1,322.5,160.3,327.2,160.3,327.2z"/>
<path class="st8" d="M219.7,254c0,0-26.5-3.6-45.5,7.5"/>
<polygon class="st9" points="174.9,257.7 175.6,258 174.5,261.4 178,262.2 177.8,262.9 173.6,261.9 "/>
<g>
	<g>
		<path class="st9" d="M245.5,251c4.4-2.6,8.7-5.1,13-7.5c2.2-1.2,4.3-2.4,6.5-3.6c2.2-1.2,4.4-2.3,6.6-3.4l0.1,0.5
			c-3.6-0.1-7.3-0.1-10.9-0.1c-3.6,0-7.3,0.1-10.9,0.2c-3.6,0.1-7.3,0.1-10.9,0.1c-3.6,0-7.3,0-10.9,0l0.3-0.9
			c2.6,2.3,5.2,4.8,7.7,7.1l3.8,3.6c1.3,1.2,2.5,2.4,3.8,3.7l-0.1,0c0.3-0.1,0.6-0.1,0.9,0c0.2,0,0.3,0.1,0.4,0.1
			C245.2,250.8,245.4,250.9,245.5,251z M245.5,251.1c-0.2-0.1-0.3-0.2-0.4-0.2c-0.1-0.1-0.3-0.1-0.4-0.1c-0.3,0-0.6,0-0.8,0.1
			c0,0-0.1,0-0.1,0l0,0c-1.3-1.1-2.7-2.3-4-3.4l-4-3.4c-2.6-2.3-5.3-4.6-7.9-7c-0.2-0.2-0.2-0.5,0-0.7c0.1-0.1,0.2-0.2,0.4-0.2
			c3.6,0,7.3,0,10.9,0c3.6,0,7.3,0.1,10.9,0.1c3.6,0.1,7.3,0.2,10.9,0.2c3.6,0,7.3,0,10.9-0.1c0.2,0,0.3,0.1,0.3,0.3
			c0,0.1-0.1,0.2-0.1,0.3l0,0c-2.2,1.2-4.3,2.5-6.5,3.7c-2.2,1.2-4.4,2.4-6.6,3.6C254.3,246.6,249.8,248.9,245.5,251.1z"/>
	</g>
	<g>
		<path class="st9" d="M245.7,253.9c1,2.9,2,5.8,2.9,8.7c0.5,1.4,0.9,2.9,1.4,4.3l1.3,4.3l-0.4-0.3c0.1,0,0.3,0,0.4,0l0.4,0.1
			l-0.5,0.2c1.7-2.8,3.5-5.5,5.4-8.2c0.9-1.4,1.8-2.7,2.7-4.1c0.9-1.4,1.8-2.8,2.6-4.2c1.7-2.8,3.4-5.6,5-8.4
			c1.7-2.8,3.4-5.6,5.1-8.4l0.6,0.7c-2.2,1.2-4.3,2.4-6.5,3.6c-2.2,1.2-4.3,2.4-6.5,3.5c-4.4,2.3-8.8,4.6-13.2,6.8l0.1-0.1
			c0,0.3,0,0.6-0.1,0.9c-0.1,0.1-0.1,0.3-0.2,0.4C245.9,253.7,245.8,253.9,245.7,253.9z M245.6,253.9c0.1-0.2,0.2-0.2,0.3-0.4
			c0.1-0.1,0.1-0.3,0.2-0.4c0.1-0.3,0.1-0.6,0.1-0.8c0,0,0-0.1,0.1-0.1l0,0c4.2-2.6,8.6-5,12.9-7.5c2.2-1.2,4.3-2.4,6.5-3.6
			c2.2-1.2,4.4-2.4,6.5-3.5l0,0c0.2-0.1,0.5,0,0.7,0.2c0.1,0.2,0.1,0.3,0,0.5c-1.8,2.8-3.5,5.5-5.3,8.3c-1.8,2.7-3.6,5.5-5.4,8.2
			c-0.9,1.4-1.8,2.8-2.6,4.2c-0.9,1.4-1.7,2.8-2.5,4.2c-1.7,2.8-3.3,5.7-5.1,8.4c-0.1,0.1-0.3,0.2-0.4,0.2l-0.1,0l-0.2,0
			c-0.1,0-0.2,0-0.2,0c-0.2,0-0.4-0.1-0.4-0.3l0,0l-1.3-4.4c-0.4-1.5-0.9-2.9-1.3-4.4C247.1,259.7,246.3,256.8,245.6,253.9z"/>
	</g>
	<g>
		<path class="st9" d="M226.8,237.4l-0.5,3.9c-0.2,1.3-0.3,2.5-0.5,3.7c-0.3,2.4-0.6,4.8-1.1,7.2l-0.4-0.4l4.5,0.3
			c1.5,0.1,3,0.1,4.5,0.1c1.5,0,3,0,4.5-0.1c1.5,0,3,0,4.5-0.1l-0.5,0.4c0-0.3,0.1-0.6,0.2-0.8l0.1,0.5l-3.9-3.5
			c-1.3-1.2-2.6-2.4-3.8-3.6L226.8,237.4z M226.8,237.3l8.1,6.8c1.4,1.2,2.8,2.4,4.1,3.6l4,3.7l0,0c0.2,0.1,0.2,0.4,0.1,0.5
			c-0.1,0.2-0.1,0.3-0.1,0.5l0,0c0,0.2-0.2,0.4-0.5,0.4c-1.5-0.1-3-0.1-4.5-0.2c-1.5-0.1-3-0.2-4.5-0.2c-1.5-0.1-3-0.1-4.5-0.1
			l-4.5,0.1c-0.2,0-0.4-0.2-0.4-0.4l0,0l0,0c0.3-2.5,0.8-5.1,1.3-7.5c0.2-1.3,0.5-2.5,0.8-3.7L226.8,237.3z"/>
	</g>
	<g>
		<path class="st9" d="M249.7,274.6c-4.4,2.6-8.6,5.1-12.9,7.5c-2.1,1.2-4.3,2.4-6.4,3.6c-2.1,1.2-4.3,2.3-6.5,3.4l-0.1-0.6
			c3.7,0.1,7.3,0.2,11,0.1c3.7,0,7.3-0.1,11-0.2c3.7-0.1,7.3-0.1,11-0.1c3.7,0,7.3,0,11,0l-0.3,0.9c-1.3-1.2-2.7-2.3-4-3.5l-4-3.5
			l-3.9-3.6c-1.3-1.2-2.6-2.4-3.9-3.6l0.1,0c-0.3,0.1-0.7,0.1-1.1,0.1c-0.2,0-0.3-0.1-0.5-0.2C249.9,274.8,249.8,274.7,249.7,274.6z
			 M249.7,274.5c0.2,0.1,0.3,0.2,0.4,0.3c0.1,0.1,0.3,0.1,0.5,0.1c0.3,0.1,0.7,0,0.9-0.1c0,0,0.1,0,0.1,0l0,0
			c1.4,1.1,2.8,2.2,4.1,3.4l4.1,3.4l4.1,3.4c1.4,1.1,2.7,2.3,4,3.4c0.2,0.2,0.2,0.5,0.1,0.7c-0.1,0.1-0.2,0.2-0.4,0.2l0,0
			c-3.7,0-7.3,0-11,0c-3.7,0-7.3-0.1-11-0.1c-3.7-0.1-7.3-0.2-11-0.2c-3.7,0-7.3,0-11,0.1c-0.2,0-0.3-0.1-0.3-0.3
			c0-0.1,0.1-0.2,0.1-0.3l0,0c2.2-1.2,4.3-2.5,6.5-3.7c2.2-1.2,4.4-2.4,6.6-3.6C241,278.9,245.4,276.6,249.7,274.5z"/>
	</g>
	<g>
		<path class="st9" d="M249.5,271.9c-1-2.9-2-5.8-3-8.7c-0.5-1.4-0.9-2.9-1.4-4.3l-1.3-4.3l0.4,0.3c-0.2,0-0.5-0.1-0.7-0.2l0.5-0.2
			c-1.7,2.8-3.5,5.5-5.3,8.2c-1.8,2.7-3.5,5.5-5.2,8.2c-1.7,2.8-3.3,5.6-5,8.4c-1.7,2.8-3.3,5.6-5,8.4l-0.7-0.7
			c2.1-1.2,4.3-2.4,6.5-3.6c2.2-1.2,4.3-2.4,6.5-3.5c4.4-2.3,8.7-4.6,13.1-6.8l-0.1,0.1c0-0.3,0-0.5,0.1-0.7c0-0.1,0.1-0.2,0.2-0.3
			C249.4,272.1,249.5,271.9,249.5,271.9z M249.6,271.9c-0.1,0.1-0.1,0.2-0.2,0.3c-0.1,0.1-0.1,0.2-0.1,0.3c-0.1,0.2-0.1,0.4-0.1,0.7
			c0,0,0,0.1,0,0.1l0,0c-4.2,2.6-8.5,5-12.8,7.4c-2.1,1.2-4.3,2.4-6.5,3.6c-2.2,1.2-4.3,2.4-6.5,3.5l0,0c-0.2,0.1-0.5,0-0.7-0.2
			c-0.1-0.2-0.1-0.3,0-0.5c1.7-2.8,3.5-5.5,5.2-8.2c1.8-2.7,3.6-5.4,5.3-8.2c1.7-2.7,3.4-5.5,5.1-8.3c1.6-2.8,3.3-5.6,5-8.4
			c0.1-0.1,0.3-0.2,0.4-0.2l0.1,0c0.1,0,0.3,0.1,0.4,0.1l0.1,0c0.2,0,0.3,0.2,0.3,0.3l1.3,4.4c0.4,1.5,0.9,3,1.3,4.4
			C248.1,266.1,248.9,269,249.6,271.9z"/>
	</g>
	<g>
		<path class="st9" d="M252.7,273.9c1.5,1.1,2.9,2.3,4.4,3.4c1.4,1.1,2.8,2.3,4.2,3.4c2.7,2.3,5.2,4.8,7.9,7.2l-0.3,0.1
			c0.4-2.5,0.8-4.9,1.1-7.4c0.3-2.5,0.7-4.9,1-7.4l0.5,0.6c-3.1,0.1-6.2,0.1-9.3,0c-1.6,0-3.1-0.1-4.7-0.1c-1.6-0.1-3.1-0.1-4.7-0.2
			l0.1-0.1L252.7,273.9z M252.6,273.9l0.1-0.5c0,0,0-0.1,0.1-0.1c1.6-0.1,3.1-0.2,4.7-0.2c1.6-0.1,3.1-0.1,4.7-0.1
			c3.1-0.1,6.2-0.1,9.3,0l0,0c0.3,0,0.5,0.2,0.5,0.5c0,0,0,0.1,0,0.1c-0.4,2.4-0.9,4.9-1.4,7.3c-0.5,2.4-1,4.9-1.4,7.3
			c0,0.1-0.1,0.1-0.2,0.1c0,0-0.1,0-0.1,0c-2.7-2.4-5.8-4.5-8.5-7c-1.3-1.2-2.7-2.4-4-3.7C255.1,276.3,253.8,275.1,252.6,273.9z"/>
	</g>
</g>
</svg>
