<?xml version="1.0" encoding="utf-8"?>
<!-- Generator: Adobe Illustrator 22.0.0, SVG Export Plug-In . SVG Version: 6.00 Build 0)  -->
<svg version="1.1" id="Layer_1" xmlns="http://www.w3.org/2000/svg" xmlns:xlink="http://www.w3.org/1999/xlink" x="0px" y="0px"
	 viewBox="0 0 515.9 728.5" style="enable-background:new 0 0 515.9 728.5;" xml:space="preserve">
<style type="text/css">
	.st0{fill:#403E56;}
	.st1{fill:#66669A;}
	.st2{opacity:0.42;fill:#999999;}
	.st3{opacity:0.42;fill:#CDCCCC;}
	.st4{fill:#FFFFFF;stroke:#FFFFFF;stroke-width:0.2;stroke-miterlimit:10;}
	.st5{fill:#D0CDE1;}
</style>
<g>
	<circle class="st0" cx="270.9" cy="357.9" r="110.5"/>
	<path class="st1" d="M382,357.9c-0.2,29.1-11.7,58-32.1,79c-10.1,10.5-22.4,19.1-35.9,25c-13.5,5.9-28.3,9-43.1,9.3
		c-14.8,0.1-29.7-2.7-43.5-8.3c-13.8-5.6-26.5-13.9-37.2-24.3c-10.6-10.5-19.2-23.1-25.1-36.9c-5.9-13.8-9-28.8-9.1-43.8
		c-0.1-15,2.7-30.1,8.3-44.1c5.6-14,14-27,24.6-37.8c10.7-10.8,23.5-19.5,37.5-25.4c14-5.9,29.3-8.7,44.5-8.6l11.3,0.8
		c3.7,0.5,7.5,1.2,11.2,1.8c3.7,0.8,7.3,2,10.9,3c3.6,1.2,7,2.7,10.5,4.1c13.7,6.2,26.1,15.2,36.2,26.1
		C371.4,299.5,382.2,328.9,382,357.9z M380.9,357.9l-0.7-10.8c-0.5-3.6-1.2-7.1-1.7-10.6c-0.8-3.5-1.9-6.9-2.8-10.4
		c-1.2-3.4-2.6-6.7-3.9-10c-5.9-13-14.4-24.7-24.8-34.3c-20.8-19.2-48.6-29.3-76.1-29c-27.5,0.3-54.7,11.3-74.4,30.8
		c-9.9,9.6-17.9,21.2-23.3,33.9c-5.5,12.7-8.3,26.5-8.5,40.5c-0.1,13.9,2.5,27.9,7.7,40.8c5.2,12.9,13,24.9,22.8,34.9
		c9.8,10,21.6,18.1,34.6,23.6c12.9,5.5,27,8.4,41.1,8.6c28.3,0.5,56.7-10.6,77.4-30.5c10.3-10,18.6-22,24.3-35.3
		C378.1,386.8,380.9,372.3,380.9,357.9z"/>
</g>
<path class="st2" d="M215.6,359c-0.5-0.5-1-1-1.7-1.4c-0.2-0.2-0.5-0.2-0.7-0.2c-0.1,0.1-0.3,0.2-0.4,0.3l-1.8,1.7
	c-0.2,0.1-0.3,0.3-0.3,0.5c-0.1,0.5,0.5,0.7,0.8,1.1c0.3,0.4,0.2,1-0.2,1.4c-0.4,0.4-0.8,0.7-1.3,0.9l-3.1,1.6
	c0.6-0.8,1-1.8,1.1-2.9c0.1-0.7-0.3-1.6-1-1.5c-0.2,0.1-0.4,0.2-0.5,0.3c-1.2,0.9-3,0.6-4.5,1c-1.9,0.6-3.3,2.3-3.3,4.3l1.5-1
	c0.1-0.1,0.3-0.2,0.5-0.2c0.5,0,0.5,0.8,0.8,1.2c0.4,0.5,1.2,0.1,1.8-0.2c0.6-0.3,1.6-0.4,1.7,0.3c-2,2.9-6.8,2.1-9.4,4.5
	c-0.7,0.6-1.1,1.4-1.7,2.1c-3.5,4.2-10,4.5-14,8.3c-0.9,0.9-1.6,1.8-2.3,2.8c-0.5,0.6-0.9,1.3-1,2.1c-0.1,0.8,0.3,1.7,1,1.8
	c-1.1,0.9-2.3,1.6-3.6,2.1c0.8-0.1,1.7,0.3,2.2,1c-1.6,1.6-2.9,3.3-4,5.2c0.7,0.3,1.4,0.5,2.1,0.6l-1.2,3c0.9-0.4,2,0.4,2.1,1.4
	c0.5-0.9,0.4-2.2,1.1-3c0.5-0.5,1.2-0.7,1.9-0.9c0.7-0.2,1.4-0.4,1.8-0.9c0.4-0.5,0.3-1.5-0.3-1.7c1.8-2.3,3.9-4.4,6.3-6.2
	c0.2-0.2,0.4-0.3,0.6-0.3c0.5,0,0.7,0.5,1,0.9c0.3,0.4,0.9,0.7,1.1,0.3c-0.1,0.6,0.7,1,1.3,1.1c0.6,0.1,1.5,0.3,1.6,0.9
	c0,0.2,0,0.3,0,0.5c0.1,0.5,0.7,0.7,1.2,0.7c0.5,0,1-0.1,1.5,0.1c0.5,0.2,0.8,0.8,0.4,1.2l-2.2-0.6c-0.1,0.7,0,1.4,0.3,2
	c1.9,0.1,3.6,2,3.4,3.9c-0.1,1-0.6,1.9-0.9,2.8c-0.3,0.9-0.4,2.1,0.2,2.9c1,1.4,1.8,2.8,3.3,3.7c2.7,1.7,5.4,3.2,8.3,4.5
	c0.8,0.3,1.6,0.7,2.4,0.3c-2.3-1.4-4.6-3-6.8-4.6c0.4-0.3,1-0.6,1.5-0.5c0.4,0.1,0.7,0.6,1,0.9c0.3,0.3,0.7,0.5,1.1,0.7l9.2,4.2
	c0.8,0.4,1.6,0.7,2.4,0.5c0.5-0.1,1-0.5,1.5-0.6c0.4,0,0.8,0.1,1.3,0.1c1.2-0.1,1.7-1.9,2.9-1.9c0.3,0,0.7,0.1,1,0.2
	c1.2,0.1,2.1-1.2,3.3-1.3c0.8-0.1,1.5,0.3,2.2,0.7c1.7,0.9,3.9,1.4,5.5,0.3c0.5-0.3,0.9-0.8,1.5-1c0.6-0.2,1.3-0.2,1.6,0.4
	c0.5,0.9,1.5,1.5,2,2.4c0.9,1.7-0.8,3.9,0.1,5.5c0.2,0.4,0.5,0.7,0.7,1c0.2,0.5,0.1,1,0.3,1.5c0.3,0.9,1.4,1.3,2.4,1.3
	c1,0.1,2,0,2.8,0.5c0.9,0.5,1.3,1.5,2,2.2c1.5,1.6,4,1.8,6.2,1.5c0.7-0.1,1.4-0.2,2,0c0.8,0.3,1.3,1.1,2,1.7c1.6,1.5,4,1.8,5.3,3.6
	c0.9,1.2,1,2.8,1.5,4.3c0.9,2.8,2.9,5.2,5.6,6.4c0.7,0.3,1.4,0.5,2,0.9c1.1,0.7,1.8,2,2.9,2.7c1.4,1,3.6,1.2,4.5,2.7
	c1.5,0.8,3.2,0.5,4.8-0.1l2.8-1c0.5-0.2,1.1-0.4,1.5-0.8c0.4-0.4,0.6-1.1,0.2-1.6c-1.3,0.6-2.7,1.2-4.2,1.1c-1.5,0-3-0.8-3.5-2.2
	c-0.2-0.6-0.3-1.5-0.9-1.7c-0.4-0.1-0.8,0.1-1.2,0c-0.6-0.1-0.9-0.8-1-1.4c-0.1-0.6,0-1.2-0.2-1.8c-0.3-0.6-0.9-1-1.6-0.9
	c0.3-0.5,0.5-1,0.6-1.6c0.1-0.6-0.2-1.2-0.7-1.4c0.8-0.4,1.7-1,1.7-1.9c0.1-0.7-0.4-1.3-1-1.8s-1.2-0.8-1.6-1.4
	c1.7-1.1,3.3-2.4,4.8-3.7c-0.8-0.6-1.8-0.9-2.9-0.8c0.7-0.7,0.7-2,0.4-2.9c-0.3-0.9-0.9-1.6-1.6-2.3c-0.2-0.2-0.3-0.3-0.4-0.6
	c-0.1-0.3,0-0.7,0.2-1l2.2-4.8c0.1-0.3,0.2-0.6,0.3-0.9c0.1-0.7-0.5-1.4-1.1-1.8c-0.6-0.4-1.3-0.7-1.8-1.3c-1.5-1.6-0.5-4.2-1.1-6.4
	c-0.2-0.8-0.7-1.6-1.1-2.3c-0.5-0.8-1.1-1.7-2-1.7c-0.9-0.1-1.7,0.7-2.6,0.6c-0.8,0-1.6-0.6-2.4-0.5c-0.7,0.1-1.3,0.7-1.9,1
	c-1.2,0.5-2.7-0.2-3.8,0.4c-0.6,0.4-1.1,1.1-1.8,1.1c-0.6,0-1.1-0.6-1.6-1.1c-1.5-1.4-3.7-1.8-5.6-0.9c-0.7,0.3-1.3,0.9-2.1,0.9
	c-0.8,0-1.5-0.4-2.2-0.6c-1.2-0.3-2.5,0.2-3.6,0.7l-4.7,1.9c-0.8,0.3-1.8,0.9-1.7,1.8c0.1,0.3,0.2,0.6,0.3,0.9c0.4,1.2,0,2.5-1,3.2
	c-0.7-0.3-1.6-0.4-2.4-0.1c-0.5,0.2-0.9,0.5-1.4,0.6c-1.2,0.2-2.3-0.6-2.5-1.7c0,0,0-0.1,0-0.1c-0.1-1.2-1-2.1-2.2-2.3
	c-1.1-0.1-2.2,0.4-3.1,1.2c-0.6-0.3-0.6-1.2-0.5-1.9c0.2-0.7,0.4-1.4,0.1-2.1c-0.5-1-2.1-0.9-2.8,0s-0.6,2.1-0.4,3.2
	c0.1,0.6,0.3,1.3,0.3,1.9c0,0.6-0.4,1.3-1,1.5c-0.8,0.3-1.7-0.3-2.4-0.9c-0.9-0.8-1.8-1.6-2.5-2.6c-0.7-1-1.1-2.3-0.8-3.5
	c0.4-1.9,2.3-3.1,4-4.1c-0.7-0.2-1.1-0.9-1-1.6c0.2-0.7,0.6-1.3,1.3-1.5c0.6-0.2,1.2-0.3,1.8-0.2c0.9,0.2,1.5,0.9,2.3,1.3
	c0.8,0.4,1.9,0.4,2.3-0.4c0.3-0.7-0.1-1.5-0.7-2c-0.6-0.5-1.3-0.9-1.7-1.5c-0.8-1.2,0-2.8,0.7-4.1s1.5-2.8,0.8-4.1
	c-0.2-0.2-0.3-0.5-0.4-0.8c0-0.3,0-0.5,0.2-0.8c1.6-4.3,3.3-8.7,6.1-12.4c0.1-0.2,0.2-0.1,0.4-0.3c0.2-0.3-0.3-0.6-0.7-0.6
	s-0.8,0.1-1.1-0.1c-0.2-0.2-0.2-0.5-0.4-0.7c-0.3-0.6-1.3-0.6-1.7-0.1c-0.6-0.2-0.3-1,0.1-1.5c1.1-1.4,2.4-2.6,3.7-3.7
	c0.1-0.1,0.3-0.2,0.5-0.3c0.4,0,0.6,0.4,0.6,0.8s-0.2,0.7-0.2,1.1c-0.1,0.8,0.2,1.6,0.8,2.1c1-0.2,2.1-0.4,2.8-1.1
	c0.7-0.7,0.8-2.2-0.1-2.7c-0.9-0.4-2.1,0.2-2.8-0.4c-0.9-0.7-0.2-2.4-1.1-3.1c-0.4-0.3-0.9-0.2-1.4-0.3c-1.2-0.2-2.2-1.1-2.4-2.3
	c-0.8,0.9-2,1.3-3.2,1.1c-1.1-0.2-2.3-0.8-3.2-0.1c-0.8,0.6-0.8,2.1-1.8,2.4c-0.2,0.1-0.5,0.1-0.7,0.3c-0.1,0.2,0,0.4,0,0.5
	c0.5,1.1,1.6,1.9,1.7,3.1c0.1,1.3-1.1,2.3-1.2,3.6c-0.1,0.7,0.2,1.4,0.2,2.1c0,0.7-0.5,1.5-1.2,1.4c-0.2-1.1-1.1-2-2.3-2
	c-0.5,0-1.1,0.1-1.6,0.3c-0.6,0.1-1.2,0.2-1.9,0.2c-0.3,0-0.6,0-0.9-0.2c-0.3-0.2-0.5-0.5-0.6-0.9c-0.4-1.5,0-3.1,1.1-4.2
	c0.5-0.5,1.1-0.9,1.2-1.5c0-0.4-0.1-0.7,0.1-1c0.1-0.2,0.3-0.3,0.6-0.3l2.5-0.7c0.3-0.1,0.6-0.2,0.8-0.4c0.2-0.2,0.2-0.6,0.1-0.8
	c-0.3-0.3-0.9-0.1-1.1-0.4c-0.1-0.1-0.1-0.3,0-0.4c0.3-2.6,1.8-4.9,4.1-6.3c0.6,0.2,0.5,1,0.4,1.6s0.1,1.4,0.7,1.4
	c0.2,0,0.4-0.1,0.6-0.3c0.5-0.3,1.1-0.5,1.7-0.6c0.9-0.2,1.8-0.4,2.7-0.5c-0.4-0.4-0.8-0.8-0.9-1.3c-0.1-0.5,0.1-1.2,0.6-1.3
	c0.5-0.1,1.1,0.2,1.5,0c0.6-0.3,0.2-1.3-0.4-1.7c-0.6-0.3-1.4-0.4-1.8-1c-0.3-0.4-0.5-0.9-1-1c-0.2,0-0.3,0.1-0.5,0.1l-8.6,4.1
	c-0.5,0.2-1.1,0.8-0.8,1.3c0.2,0.3,0.6,0.4,0.7,0.7c0.1,0.3-0.3,0.6-0.5,0.8c-0.3,0.4-0.2,1.1,0.2,1.4c0.4,0.4,0.8,0.7,1.3,0.8
	C217,358.3,216.3,358.8,215.6,359z"/>
<path class="st3" d="M340.6,304.6c0.5,0.3,1,0.7,1.5,1c0.8-1.3,1.3-2.8,1.6-4.3l-4.2,1.5c-0.6,0.2-1.3,0.6-1.5,1.2
	c0,0.2,0,0.3,0.1,0.4c0.1,0,0.2,0.1,0.3,0.1c0.6,0.1,1.1-0.1,1.7-0.2c0.6-0.1,1.2-0.1,1.6,0.3"/>
<path class="st2" d="M320.9,299.9c0.4,0,0.9-0.1,1.3-0.2c0.9-0.3,1.7-1,2.6-1.5c0.8-0.4,1.8-0.6,2.7-0.7c0.3-0.2,0.3-0.7,0-0.9
	c-0.3-0.2-0.6-0.4-1-0.4c-0.9-0.2-1.9-0.4-2.8-0.1c-0.5,0.2-1,0.5-1.4,0.8c-1.1,0.6-2.3,0.9-3.5,1.2c-0.4,0.1-0.8,0.2-1.2,0.5
	c-0.8,0.6-1.1,1.6-0.1,2C318.3,300.9,320.1,300,320.9,299.9z"/>
<path class="st2" d="M311.1,304.1c-0.3,0.9-0.1,2,0.5,2.8c0.2-1,0.4-2,1.1-2.7c0.5-0.5,1.1-0.8,1.7-1.2c0.5-0.5,0.8-1.3,0.4-1.8
	c-0.3-0.3-0.6-0.5-1-0.6c-1-0.3-2.1-0.5-2.9,0c-0.4,0.3-0.7,0.9-1.2,1.1c-0.2,0-0.4,0.1-0.5,0.2c-0.2,0.3,0,0.7,0.3,0.9
	s0.7,0.2,1,0.3c0.3,0.2,0.6,0.6,0.3,0.9"/>
<path class="st2" d="M320.6,341.7c0.5,0,1.1,0,1.6,0.2c0.8,0.3,1.4,1.1,2,1.7c1.4,1.6,3.3,2.6,5.4,3c1.9,0.4,3.9,0.2,5.7,0.9
	c0-0.7-0.5-1.3-1.1-1.7c-0.6-0.4-1.2-0.7-1.8-1.1c-0.9-0.7-1.6-1.6-1.8-2.7c-0.1-0.5-0.2-1-0.4-1.5c-0.5-0.9-1.6-1.3-2.7-1.4
	c-1.4-0.1-2.9,0-4-0.7c-0.9-0.6-1.4-1.5-2.1-2.3s-1.7-1.5-2.8-1.2c1.9,1,2.9,3.1,2.5,5.1c-0.9-0.2-3.5-0.7-3.6,0.9
	C317.4,342.2,319.8,341.7,320.6,341.7z"/>
<path class="st2" d="M334.4,333.1c-0.3,0.9-1.3,1.5-1.2,2.4c0.1,0.6,0.7,1,1.3,1.2c0.6,0.1,1.3,0,1.9,0.1c0.4,0.1,0.8,0.2,1.2,0.2
	c1.3,0,2.3-1.1,3.5-1.4c0.8-0.2,1.5,0,2.3,0c1.7-0.1,3.1-1.5,4.5-2.6c2.2-1.7,4.9-2.7,7.8-2.9c1-0.1,2,0,2.9-0.5
	c1.1-0.6,1.6-2,2.1-3.2c1.2-3.4,2.8-6.7,4.6-9.8l-3.9-1.2c-0.7-0.2-1.5-0.5-2.3-0.4c-0.6,0.1-1.1,0.3-1.6,0.5
	c-2,0.8-4.1,1.2-6.2,1.1c-1.1,0-2.2-0.2-3.1-0.8c-0.9-0.6-1.6-1.6-1.5-2.6c-0.9,0.1-1.8-0.3-2.3-1c-0.5-0.7-0.8-1.6-0.8-2.5
	c0-0.6,0-1.2-0.5-1.5c-0.4-0.3-0.9-0.1-1.3-0.2c-1.5-0.1-2.5-2.1-4.1-2.1c-1.7,0-2.5,2.4-4.1,2.6c-0.9,0.1-2.2-0.4-2.7,0.3
	c-0.5,0.7,0.1,1.7-0.1,2.5c-0.3,1-1.5,1.2-2.6,1.5c-3.5,0.9-5.7,5-4.7,8.4c0.6,2,2.1,3.8,2.1,5.9c0,1.6-1,3.4-0.2,4.8
	c0.4,0.7,1.2,1.2,1.4,2c0.1,0.5-0.1,1,0,1.6c0,0.5,0.4,1.1,0.9,1.1c1.5-0.1,2.8-4.5,3.7-5.5C332.9,329.7,335.1,331.2,334.4,333.1z"
	/>
<path class="st2" d="M359.5,346.8c0.5,0.2,1,0.5,1.5,0.3c0.5-0.1,0.9-0.8,0.6-1.2c-3-0.4-6-0.8-8.9-1.7c-3.3-1.1-6.5-2.8-9.9-3
	c1.8,0.9,3.7,1.7,5.7,2.4l3.2,1.2c0.9,0.3,1.7,0.6,2.6,0.9C356.2,346.2,357.7,345.9,359.5,346.8z"/>
<path class="st2" d="M354.7,356.6c0.2,0.1,0.5,0.1,0.7-0.1c0.2-0.2,0.1-0.5,0.2-0.7c0.1-0.3,0.6-0.3,0.9-0.2c0.3,0.1,0.6,0.3,1,0.2
	c0.3-0.2,0.5-0.5,0.5-0.9c-0.1-0.3-0.2-0.7-0.4-1c-0.3-0.6-0.7-1.2-1.2-1.7c-0.9-0.9-2.2-1.5-2.7-2.7c-0.1-0.2-0.2-0.4-0.3-0.6
	c-0.3-0.2-0.7-0.2-1.1-0.1l-1.3,0.3c-0.2,0-0.4,0.1-0.6,0.3c-0.3,0.3-0.3,0.9-0.1,1.3c0.2,0.4,0.4,0.9,0.2,1.3
	c-0.2,0.8-1.3,0.9-1.8,1.5c-0.5,0.6-0.4,1.5-0.6,2.3c-0.2,0.9-1,2.1-0.2,2.9c0.7,0.7,1.6,0.3,2.3-0.2
	C351.7,357.4,352.5,356,354.7,356.6z"/>
<path class="st2" d="M345.2,369.4c-0.3-0.8-1-1.4-1.3-2.2c-0.3-0.9-0.1-1.9-0.5-2.8c-0.4-0.9-1.4-1.5-1.5-2.5
	c-0.1-1,0.8-2.1,0.4-3.1c-0.3-0.6-1.1-0.9-1.8-0.6c0,0-0.1,0-0.1,0.1c-0.6,0.5-0.7,1.3-0.3,1.9c0.3,0.4,0.8,0.6,1,1
	c0.1,0.2,0.2,0.5,0.2,0.8c0,0.8-0.1,1.5-0.5,2.2c-0.1,0.2-0.2,0.4-0.2,0.6c0.1,0.4,0.6,0.5,0.9,0.7c0.7,0.5,0.5,1.7,0.2,2.5
	c0.2-0.6,2.1,0.8,2.3,1.2c0.3,0.7-0.1,2-0.2,2.7C344.9,371.7,345.5,370.4,345.2,369.4z"/>
<path class="st3" d="M368.5,361.4c0.3,0.5,0.8,1.1,1.4,0.9c0.4-0.1,0.6-0.7,0.6-1.1c-0.1-0.4-0.4-0.8-0.7-1.2
	c-0.9-1.1-2-2.1-2.7-3.3c-1.4-2.2-1.8-4.8-3.4-6.9c-0.3-0.5-0.7-0.8-1.3-1c-0.5-0.1-1.2,0.1-1.3,0.6c-0.1,0.4,0.1,0.9,0.4,1.3
	c0.6,0.9,1.2,1.8,1.8,2.7c0.3,0.4,0.4,0.8,0.4,1.3c-0.1,0.4-0.6,0.8-1,0.6c0.5,0.2,0.7,1.2,1.5,1.4c0.6,0.2,0.8-0.1,1.5,0.3
	C366.9,358,367.7,360.1,368.5,361.4z"/>
<path class="st3" d="M327.3,397.9c0.4,0.2,0.8,0.4,1.1,0.6c1,0.5,2.6,0,2.6-1.2c0-0.8-0.6-1.4-0.8-2.1c-0.4-1,0-2.2,0.4-3.2
	c0.1-0.3,0.3-0.6,0.6-0.8c0.3-0.2,0.7-0.4,1.1-0.5c1.6-0.6,3-1.4,4.3-2.5c0.1-0.1,0.2-0.2,0.3-0.4c0.1-0.4-0.2-0.7-0.4-1.1
	c-0.4-0.8,0.2-1.6,0.3-2.5c0.1-0.2,0-0.5-0.2-0.7c-0.3-0.2-0.6,0-0.8,0.2c-0.7,0.8-0.5,2.4-1.6,2.7c-0.2,0.1-0.4,0.1-0.6,0.2
	c-0.2,0.2-0.1,0.6-0.3,0.9c-0.2,0.4-0.8,0.3-1.3,0.2c-0.8-0.2-1.7-0.2-2.5-0.1c-0.3,0-0.6,0.1-0.9,0.3c-0.3,0.3-0.4,0.8-0.4,1.3
	c-0.1,2.3,0.2,4.6,1,6.8c-0.8-0.3-1.7-0.5-2.5-0.2c-0.5,0.2-1.1,0.8-1,1.4C325.9,398.2,326.6,397.6,327.3,397.9z"/>
<path class="st2" d="M278.8,357.1c0.5,0.3,0.9,0.7,1.2,1.2c0.2,0.5,0.2,1.2-0.3,1.5c-0.4,0.2-0.8,0.1-1.3,0.1
	c-2.4-0.1-4.3,3.2-6.6,2.4c-0.9-0.3-1.5-1.3-2.3-1.8c-1.1-0.5-2.3-0.3-3.1,0.6c-0.3,0.4-0.6,0.9-0.7,1.4c-1.4,3.2-3.1,6.1-5.3,8.8
	c-0.4,0.5-0.8,1-1.1,1.6c-0.6,1.4-0.4,3,0.1,4.4c0.5,1.4,1.1,2.8,1.3,4.3c0.2,1.6-0.1,3.1-0.4,4.7c-0.1,0.6-0.1,1.1,0,1.7
	c0.2,0.6,0.7,1,1.1,1.5l5.5,5.2c0.7,0.7,1.5,1.3,2.4,1.7c1.2,0.4,2.4,0.1,3.6,0.3c1.2,0.2,2.4,0.7,3.2,1.6c0.3,0.4,0.7,0.8,1.2,0.8
	c0.3-0.1,0.5-0.2,0.7-0.4l7.8-6.6c1.4-1.2,3-2.4,4.8-2.3c0.9,0.1,1.8,0.4,2.5-0.1c0.3-0.2,0.4-0.6,0.7-0.9c0.6-0.7,1.7-0.8,2.6-0.6
	c1.4,0.3,2.6,1,3.5,2.1c0.6,0.7,1,1.5,1.6,2.1c2.2,2.5,6.3,2.6,8.7,4.9c1.4,1.4,2.1,3.3,2.6,5.2c2.6,0.5,3.9,3.5,6.1,4.9
	c2.1,1.4,5,1.3,7.1,2.7c1,0.6,2,1.6,3.1,1.3c0.5-0.2,0.9-0.4,1.2-0.8c2.1-2.1,3.7-4.6,4.6-7.4c0.4-1.3,0.7-2.9-0.1-4
	c-0.7-0.9-1.9-1.4-2.2-2.5c-0.3-1.3,1-2.4,1-3.7c0.1-2.1-2.7-3.2-3.6-5c-0.9-1.7-0.1-3.8-0.6-5.7c-0.2-0.8-0.6-1.5-1-2.2
	c-1-1.7-2.2-3.2-3.5-4.7c-0.8-0.9-1.6-1.7-2.3-2.7c-4-5.5-2.5-13.3-5.5-19.3c-0.3-0.6-0.8-1.2-1.4-1.1c-0.3,0.1-0.6,0.4-0.8,0.7
	l-2.9,3.8c-0.4,0.5-0.8,1-1.3,1.2c-0.6,0.2-1.3,0-1.5-0.6c-0.5-1.6-2.9-1.7-4.5-2.3c-4.2-1.4-8.6-2.5-13-3.1c-0.3,0-0.5-0.1-0.7-0.3
	l1-0.9c-1.5-0.8-3.3-1.6-4.8-0.9c-0.9,0.4-1.5,1.2-2.1,1.9C283.4,353.7,281,355.5,278.8,357.1z"/>
<path class="st2" d="M218.3,284.9c0.7,0.5,1.4,0.9,2.2,0.9c1.4-0.1,2.1-1.7,2.4-3.1c0.2,0.6,0.8,1,1.5,0.8c0.3-0.1,0.6-0.3,0.9-0.6
	c2.4-2.1,5.2-3.5,8.3-4.1c-0.2-0.5,0.1-1,0.5-1.2c0.6-0.3,1.3,0.2,1.7,0.7c0.4,0.5,0.7,1.1,1.3,1.4c0.6,0.3,1.5,0.1,1.6-0.5
	c0.1-0.6-0.7-1-1.2-1.2c-0.6-0.2-1.2-0.8-1-1.3c2.5-1.1,4.9-2.3,7.6-2.9c0.5-0.1,0.9-0.3,1.3-0.5c0.4-0.3,0.6-0.8,0.4-1.2
	c-1.1,0.5-2.5,0.3-3.4-0.5c3.6-1.1,7.5-2.2,11.1-1.1c0.6,0.8-1.3,1.9-0.6,2.5c0.2,0.2,0.6,0.2,0.9,0.1c2.3-0.4,4.6-0.9,6.7-1.7
	c0.8-0.3,1.6-0.7,2.4-0.7c1.4-0.1,2.8,0.5,4.2,0.6c0.6,0,1.2-0.1,1.6-0.5c0.4-0.4,0.4-1.2,0-1.5c1-1.5,3.2-1.6,5-1.4
	c1.8,0.2,3.6,0.9,5.4,0.6c1.3-0.2,2.5-0.8,3.8-0.8c0.8,0,1.6,0.2,2.4,0.2c1.5,0.1,3.1-0.3,4.6-0.6c3.9-0.8,7.8-0.8,11.7-0.2
	c0.5,0.1,1,0.2,1.4,0.5c0.4,0.3,0.7,0.8,0.6,1.3l-3.8,0.2c0.5,0.6,1.4,0.5,2.2,0.6s1.7,0.7,1.4,1.5c-0.8-0.1-1.4,0.9-1.6,1.7
	c-0.2,0.8-0.5,1.8-1.4,2c-0.7,0.2-1.8-0.2-2.1,0.4c0.9,0.7,1.6,1.5,2.3,2.4c0.7,0.9,1.3,2.1,0.8,3.1c-0.1,0.2-0.2,0.3-0.4,0.4
	c-0.5,0.2-1-0.3-1.4-0.6c-0.6-0.4-1.3-0.4-2-0.5c-0.7-0.1-1.5-0.4-1.7-1.1c-0.1-0.4,0-0.9,0.1-1.3c0.1-0.7,0.1-1.5-0.1-2.2
	c-0.2-0.6-0.5-1.1-1-1.5s-1.2-0.3-1.6,0.2c-0.2,0.2-0.3,0.5-0.5,0.6c-0.5,0.1-1-0.6-1.3-0.3c0.1,0.3,0.1,0.6,0,0.9
	c-0.9,1.2-2.8,1.2-4.2,1.9c-0.7,0.4-1.3,0.8-1.8,1.3c-0.2,0.1-0.4,0.4-0.5,0.6c-0.1,0.4,0.2,0.8,0.6,1c0.4,0.1,0.8,0.2,1.2,0.1
	c1.9,0,3.8,0.1,5.5,1s3,2.6,2.9,4.4l-4.3-2.6c0.4,1.4,0.8,2.8,1.1,4.2c0.1,0.3,0.1,0.6,0.1,0.8c-0.1,0.6-0.8,0.9-1.4,1.2
	c-0.6,0.3-0.9,1-0.7,1.6c0,0,0,0.1,0.1,0.1c0.4,0.7,1,1.1,1.6,1.5s1.2,1,1.4,1.7c0.2,0.7-0.2,1.6-0.9,1.8c-0.6,0.1-1.1-0.3-1.4-0.8
	s-0.6-1-1-1.3c-1.3-1.1-3.6,0-4.9-1.2c-0.4,0.7-0.4,1.5,0,2.2c0.4-0.4,1.1-0.2,1.5,0.1c0.4,0.3,0.7,0.8,1.1,1.2
	c0.5,0.5,1.2,1,1.4,1.7c0,0.3,0.1,0.5,0.2,0.8c0.2,0.4,0.6,0.6,0.9,0.9c0.8,0.7,1,1.9,0.8,2.9c-0.2,1-0.7,2-1.2,2.9
	c-0.9,1.6-1.8,3.2-3,4.6c-0.3,0.4-0.7,0.8-0.8,1.3c-0.2,0.5,0,1.1,0.4,1.4c-0.3,0.1-0.7,0.3-1,0.4c-0.3-1.1-0.6-2.2-0.8-3.3
	c-1.2-0.3-2,1.3-1.7,2.5c0.4,1.2,1.4,1.9,2.3,2.8c0.6,0.7,1.1,1.5,1.2,2.3c0,0.9-0.6,1.8-1.4,2c-1.4,0.2-2.4-1.7-3.8-1.6
	c-0.1,0-0.3,0-0.4,0.1c-0.2,0.2-0.2,0.4-0.1,0.7c0.2,1.1,0.4,2.3,1.1,3.3c1,1.4,2.9,2.3,2.9,4c-2.1-0.5-3.5-2.4-4.4-4.3
	c-0.9-1.9-1.4-4.1-2.6-5.8c-0.4,0.9-1.9,0.5-2.6-0.2c-0.7-0.7-1.2-1.5-1.9-2.2c-0.7-0.7-1.6-1.2-2.6-1.1c-1,0.2-1.7,1-2.3,1.8
	c-0.5,0.7-1,1.3-1.2,2.1c-0.3,1.2,0.1,2.4,0.3,3.5c0.2,1.3,0.3,2.7-0.4,3.8s-2.2,1.8-3.3,1.1c-0.6-0.3-1-0.9-1.3-1.5
	c-1.7-2.8-3.2-5.7-4.5-8.7c0,0.7-0.4,1.8-1.1,1.5c-0.2-0.1-0.3-0.2-0.4-0.3c-1.5-1.7-3.8-2.3-6-2.6c-2.2-0.2-4.5-0.1-6.7-0.4
	c-1.2-0.2-2.5-0.5-3.6-0.9c-0.4,0.9-0.2,1.9,0.4,2.7c0.6,0.7,1.8,1,2.6,0.5c0.4-0.2,0.7-0.6,1.2-0.9c0.4-0.3,1-0.3,1.3,0.1
	c0.3,0.4,0.1,0.9,0.3,1.4c0.4,0.6,1.4,0.5,1.9,1c0.4,0.4,0.3,1,0,1.5c-0.3,0.4-0.8,0.7-1.2,1.1c-1.3,1.1-2.1,2.8-3.1,4.1
	c-1.1,1.4-2.7,2.5-4.4,2.2c0-1.9-2.5-2.8-3.3-4.6c-0.3-0.6-0.3-1.2-0.6-1.8c-0.5-0.8-1.3-1.2-2.1-1.7c-1.9-1.3-3.1-3.3-3.5-5.5
	c-0.1-0.8-0.2-1.6-0.5-2.3c-0.3-0.7-1.1-1.3-1.9-1.1c-1.7,0.4-3.9,1-5.1-0.2c-0.4-0.5-0.7-1.2-0.4-1.7c0.3-0.4,0.8-0.4,1.2-0.5
	l4-0.4c0.9-0.1,1.9-0.2,2.6-0.9c0.7-0.6,0.8-2-0.1-2.4c-0.6-0.3-1.6-0.1-1.9-0.7c-0.2-0.5,0.2-1.3-0.2-1.7c-0.3-0.3-0.8-0.1-1.1,0.2
	c-0.3,0.3-0.4,0.7-0.7,1c-0.6,0.5-1.4,0.3-2.1,0.2s-1.6,0.1-1.8,0.8c-0.2,0.8,0.7,1.6,0.5,2.3c-0.3,1-2,0.8-2.5,1.8
	c-0.6,1.1,1,2.2,1,3.4c-0.6,0.5-1.4,0.6-2.1,0.3c-0.7-0.3-1.2-1-1.3-1.7c0-0.5,0.1-1.1-0.2-1.6c-0.2-0.4-0.7-0.5-1.1-0.7l-4.3-1.3
	c-0.2,0.7,0.4,1.5,1.1,1.8c0.7,0.4,1.4,0.6,2,1.2c0.7,0.8,0.6,2.1-0.2,2.8c-0.1,0.1-0.2,0.2-0.4,0.1c-0.1,0-0.3-0.1-0.3-0.3
	c-1-1.6-2.4-3.1-4.2-3.6s-4.1,0.1-4.8,1.9c-0.2,0.4-0.3,0.9-0.4,1.3c-0.7,2.3-3,3.8-5.4,4.2c-0.2,0.1-0.5,0.1-0.7,0
	c-0.4-0.2-0.5-0.7-0.6-1.2l-0.2-2c0-0.4-0.1-0.8,0.2-1.2c0.4-0.4,1-0.4,1.6-0.5c0.8-0.2,1.5-0.9,1.5-1.8c0.1-0.9-0.4-1.7-1.1-2.1
	c-0.3-0.2-0.7-0.4-0.6-0.8c0.1-0.2,0.2-0.4,0.4-0.4c0.9-0.5,2-0.8,2.9-1.3c0.9-0.5,1.7-1.4,1.7-2.5c0-0.3,0-0.7,0.2-0.9
	c0.1-0.1,0.3-0.2,0.4-0.2c1.1-0.4,1.6-1.5,1.4-2.6c0.4-0.4,1.1-0.3,1.6-0.1c0.5,0.3,1,0.6,1.6,0.7c1.1,0.1,1.9-1.1,2.9-1.3
	c0.4-0.1,0.9,0,1.3-0.3c0.4-0.2,0.6-0.7,0.8-1.1s0.8-0.7,1.2-0.4l-0.7-1.8c1.1,0,2.2-0.4,2.9-1.2l-3.6-0.4c-0.1,0-0.2,0-0.3-0.1
	c-0.3-0.2-0.1-0.7,0-1c0.3-0.8,0.2-2-0.7-2.2c-0.6-0.1-1.1,0.3-1.6,0.7l-2.1,1.9c0,0.5,0.6,0.6,1.1,0.9c0.7,0.4,0.9,1.3,0.5,2
	c-0.2,0.4-0.5,0.6-0.9,0.7c0.4,0.4,0.6,0.9,0.6,1.4l-1.6,0.5c-0.2,0.1-0.4,0.1-0.6,0c-0.2-0.1-0.2-0.4-0.3-0.6
	c-0.2-0.5-0.8-0.8-1.4-0.8s-1.1,0.3-1.6,0.5c-0.2,0.1-0.5,0.2-0.7,0.1c-0.1-0.1-0.3-0.2-0.4-0.3c-0.4-0.5-0.3-1.3,0-1.8
	s0.7-1.1,1.1-1.6c0.9-1.2,1.5-2.7,1.6-4.2c0.8-0.6,1.6-1.3,2.5-1.8c1.2-1,2.7-1.6,4.3-1.8l3.1-0.6c0.9-0.2,1.8-0.3,2.7-0.2
	c0.9,0.2,1.8,0.8,2,1.6c0.1,0.2,0.1,0.4-0.1,0.6c-0.1,0.1-0.2,0.1-0.4,0.2C219.5,284.4,219.2,284.7,218.3,284.9z"/>
<g>
	<path class="st4" d="M259.6,336.1l58.2-31.9h-96.5l34.6,31.3c0.4-0.1,0.8-0.2,1.3-0.2C258.1,335.3,258.9,335.6,259.6,336.1z"/>
	<path class="st4" d="M259.9,342.4l11.7,38.5c0.1,0,0.1,0,0.2,0c0.4,0,0.8,0.1,1.2,0.2l46.1-74l-57.8,31.7c0,0.2,0,0.4,0,0.6
		C261.3,340.6,260.8,341.7,259.9,342.4z"/>
	<path class="st4" d="M218.2,305.7l-5.4,32.6l40.2,0.7c0-0.5,0.2-1,0.4-1.4L218.2,305.7z"/>
	<path class="st4" d="M269,388.1l-57.6,31.6h97.3l-35.5-30.8c-0.5,0.2-0.9,0.3-1.5,0.3C270.7,389.1,269.7,388.7,269,388.1z"/>
	<path class="st4" d="M268.7,382.3l-11.7-38.8c-0.4,0-0.9-0.1-1.3-0.3l-45.5,73.5l57.4-31.6c0-0.1,0-0.1,0-0.2
		C267.6,384,268,383,268.7,382.3z"/>
	<path class="st4" d="M275.5,386.7l36.3,31.5l5.4-32.6l-41.4,0C275.8,386,275.7,386.3,275.5,386.7z"/>
</g>
<g>
	<rect x="321.7" y="273.8" class="st5" width="120.5" height="80"/>
	<rect x="321.7" y="296.4" class="st0" width="120.5" height="13.5"/>
</g>
</svg>
