<?xml version="1.0" encoding="utf-8"?>
<!-- Generator: Adobe Illustrator 22.0.0, SVG Export Plug-In . SVG Version: 6.00 Build 0)  -->
<svg version="1.1" id="Layer_1" xmlns="http://www.w3.org/2000/svg" xmlns:xlink="http://www.w3.org/1999/xlink" x="0px" y="0px"
	 viewBox="0 0 515.9 728.5" style="enable-background:new 0 0 515.9 728.5;" xml:space="preserve">
<style type="text/css">
	.st0{opacity:0.4;fill:#32245E;}
	.st1{fill:#F7A715;}
	.st2{fill:#CC6615;}
	.st3{fill:#FFFFFF;}
</style>
<g>
	<path class="st0" d="M119.1,414.4l32.9-14.7c1.3-0.6,2.5-1.4,3.6-2.4l9.8-8.9c1.3-1.2,2.9-2.2,4.6-2.8l12.7-4.5
		c3.5-1.2,6.3-3.9,7.9-7.3l3.3-7.1c2.3-4.9,7-8,12.2-8h13.5c4.1,0,8-2,10.6-5.4l4.4-5.9c2.1-2.7,5-4.6,8.3-5.2l8.6-1.6
		c1.7-0.3,3.3-1,4.8-1.9l9-5.9c2.1-1.4,4.6-2.1,7.1-2.1h34.3c2.8,0,5.5-0.9,7.8-2.6l16.3-12.1c1.6-1.2,3.5-2,5.5-2.4l9.4-1.7
		c2.5-0.5,4.8-1.6,6.7-3.4l13.9-13.1c2.5-2.3,5.7-3.6,9-3.6l0,0c4.8,0,9.2-2.6,11.6-7l9.5-16.7v146.1H119.1z"/>
	<g>
		<path class="st1" d="M268.8,267c-36.5,1.6-65.4,31.5-65,67.8c0.4,37.1,31.1,66.8,68.6,66.4c36.2-0.4,65.4-28.7,67.1-64l-70,0.8
			L268.8,267z"/>
		<g>
			<path class="st1" d="M277.4,261.2c-0.7,0-1.5,0-2.2,0.1l0.8,71l70-0.8c0.1-1.3,0.1-2.6,0.1-3.9
				C345.6,290.5,314.9,260.8,277.4,261.2z"/>
		</g>
		<g>
			<g>
				<path class="st2" d="M291.2,332.2c3.5,3,5.7,7.3,6,12.2l0,0.9c0.4,9.3-6.9,17.2-16.2,17.5l-0.4,0l0.2,5l-10.9,0.4l-0.2-5
					l-4.4,0.2l0.2,5l-10.9,0.4l-0.2-5l-2.5,0.1l-5.4,0.2l-0.4-10.9l5.4-0.2l-0.5-13l-0.4-10.9l-0.5-11.7l-5.4,0.2l-0.4-10.9l5.4-0.2
					l2.5-0.1l-0.3-6.1l10.9-0.4l0.3,6.1l4.4-0.2l-0.3-6.1l10.9-0.4l0.3,6.2c8.5,0.2,15.6,7,16,15.7l0,0.9
					C294.3,325.9,293.2,329.4,291.2,332.2z M286.3,345.8l0-0.9c-0.1-3.3-3-5.9-6.3-5.8l-1.4,0.1l-16.8,0.6l0.5,13l2.3-0.1l15.9-0.6
					C283.9,351.9,286.5,349.1,286.3,345.8 M260.8,317.1l0.5,11.7l16.8-0.6c3-0.1,5.3-2.6,5.2-5.6l0-0.9c-0.1-3-2.7-5.3-5.7-5.2
					l-14.5,0.5L260.8,317.1"/>
			</g>
			<g>
				<path class="st3" d="M293.3,330c3.5,3,5.7,7.3,6,12.2l0,0.9c0.4,9.3-6.9,17.2-16.2,17.5l-0.4,0l0.2,5L272,366l-0.2-5l-4.4,0.2
					l0.2,5l-10.9,0.4l-0.2-5l-2.5,0.1l-5.4,0.2l-0.4-10.9l5.4-0.2l-0.5-13l-0.4-10.9l-0.5-11.7l-5.4,0.2l-0.4-10.9l5.4-0.2l2.5-0.1
					l-0.3-6.1l10.9-0.4l0.3,6.1l4.4-0.2l-0.3-6.1l10.9-0.4l0.3,6.2c8.5,0.2,15.6,7,16,15.7l0,0.9C296.5,323.6,295.3,327.1,293.3,330
					z M288.4,343.5l0-0.9c-0.1-3.3-3-5.9-6.3-5.8l-1.4,0.1l-16.8,0.6l0.5,13l2.3-0.1l15.9-0.6C286,349.6,288.6,346.8,288.4,343.5
					 M262.9,314.8l0.5,11.7l16.8-0.6c3-0.1,5.3-2.6,5.2-5.6l0-0.9c-0.1-3-2.7-5.3-5.7-5.2l-14.5,0.5L262.9,314.8"/>
			</g>
		</g>
	</g>
	<g>
		<g>
			<circle class="st1" cx="346" cy="257.4" r="11.2"/>
			<g>
				<path class="st3" d="M350,257.2c0.7,0.6,1.1,1.5,1.1,2.5l0,0.2c0,1.8-1.5,3.4-3.3,3.4l-0.1,0l0,1l-2.2,0l0-1l-0.9,0l0,1l-2.2,0
					l0-1l-0.5,0l-1.1,0l0-2.2l1.1,0l0-2.6l0-2.2l0-2.3l-1.1,0l0-2.2l1.1,0l0.5,0l0-1.2l2.2,0l0,1.2l0.9,0l0-1.2l2.2,0l0,1.2
					c1.7,0.1,3.1,1.5,3.1,3.2l0,0.2C350.7,256,350.5,256.6,350,257.2z M349,259.8l0-0.2c0-0.7-0.6-1.2-1.2-1.2l-0.3,0l-3.3,0l0,2.6
					l0.5,0l3.2,0C348.5,261,349,260.5,349,259.8 M344.1,254l0,2.3l3.3,0c0.6,0,1.1-0.5,1.1-1.1l0-0.2c0-0.6-0.5-1.1-1.1-1.1l-2.9,0
					L344.1,254"/>
			</g>
		</g>
		<g>
			<circle class="st1" cx="357.2" cy="293.8" r="11.2"/>
			<g>
				<path class="st3" d="M361.2,293.6c0.7,0.6,1.1,1.5,1.1,2.5l0,0.2c0,1.8-1.5,3.4-3.3,3.4l-0.1,0l0,1l-2.2,0l0-1l-0.9,0l0,1
					l-2.2,0l0-1l-0.5,0l-1.1,0l0-2.2l1.1,0l0-2.6l0-2.2l0-2.3l-1.1,0l0-2.2l1.1,0l0.5,0l0-1.2l2.2,0l0,1.2l0.9,0l0-1.2l2.2,0l0,1.2
					c1.7,0.1,3.1,1.5,3.1,3.2l0,0.2C361.9,292.3,361.7,293,361.2,293.6z M360.2,296.2l0-0.2c0-0.7-0.6-1.2-1.2-1.2l-0.3,0l-3.3,0
					l0,2.6l0.5,0l3.2,0C359.7,297.4,360.2,296.9,360.2,296.2 M355.3,290.4l0,2.3l3.3,0c0.6,0,1.1-0.5,1.1-1.1l0-0.2
					c0-0.6-0.5-1.1-1.1-1.1l-2.9,0L355.3,290.4"/>
			</g>
		</g>
		<g>
			<circle class="st1" cx="310.1" cy="251.1" r="11.2"/>
			<g>
				<path class="st3" d="M314.1,250.9c0.7,0.6,1.1,1.5,1.1,2.5l0,0.2c0,1.8-1.5,3.4-3.3,3.4l-0.1,0l0,1l-2.2,0l0-1l-0.9,0l0,1
					l-2.2,0l0-1l-0.5,0l-1.1,0l0-2.2l1.1,0l0-2.6l0-2.2l0-2.3l-1.1,0l0-2.2l1.1,0l0.5,0l0-1.2l2.2,0l0,1.2l0.9,0l0-1.2l2.2,0l0,1.2
					c1.7,0.1,3.1,1.5,3.1,3.2l0,0.2C314.8,249.6,314.5,250.3,314.1,250.9z M313,253.5l0-0.2c0-0.7-0.6-1.2-1.2-1.2l-0.3,0l-3.3,0
					l0,2.6l0.5,0l3.2,0C312.5,254.7,313.1,254.2,313,253.5 M308.2,247.7l0,2.3l3.3,0c0.6,0,1.1-0.5,1.1-1.1l0-0.2
					c0-0.6-0.5-1.1-1.1-1.1l-2.9,0L308.2,247.7"/>
			</g>
		</g>
	</g>
</g>
</svg>
